<svg width="158" height="54" viewBox="0 0 158 54" fill="none" xmlns="http://www.w3.org/2000/svg">
<rect x="128" y="30" width="27" height="0.789474" fill="#048053" stroke="#048053" stroke-width="4.5" stroke-linejoin="round"/>
<rect x="140.5" y="16" width="0.852941" height="27" fill="#048053" stroke="#048053" stroke-width="4.5" stroke-linejoin="round"/>
<g filter="url(#filter0_d_301_1173)">
<path d="M16.0835 43.585C14.3435 43.585 12.671 43.315 11.066 42.775C9.47596 42.22 8.08096 41.4325 6.88096 40.4125C5.68096 39.3775 4.81846 38.14 4.29346 36.7L9.44596 34.81C9.65596 35.41 10.0835 35.9575 10.7285 36.4525C11.3735 36.9475 12.161 37.345 13.091 37.645C14.021 37.945 15.0185 38.095 16.0835 38.095C17.1785 38.095 18.1985 37.93 19.1435 37.6C20.1035 37.255 20.876 36.7825 21.461 36.1825C22.046 35.5675 22.3385 34.855 22.3385 34.045C22.3385 33.22 22.031 32.545 21.416 32.02C20.801 31.48 20.0135 31.0525 19.0535 30.7375C18.0935 30.4225 17.1035 30.1825 16.0835 30.0175C13.8485 29.6725 11.846 29.14 10.076 28.42C8.30596 27.7 6.90346 26.7025 5.86846 25.4275C4.84846 24.1525 4.33846 22.5025 4.33846 20.4775C4.33846 18.5725 4.88596 16.9075 5.98096 15.4825C7.07596 14.0575 8.51596 12.9475 10.301 12.1525C12.086 11.3575 14.0135 10.96 16.0835 10.96C17.8085 10.96 19.4735 11.23 21.0785 11.77C22.6835 12.31 24.086 13.0975 25.286 14.1325C26.501 15.1675 27.371 16.4125 27.896 17.8675L22.721 19.735C22.511 19.135 22.0835 18.5875 21.4385 18.0925C20.7935 17.5975 20.006 17.2075 19.076 16.9225C18.146 16.6225 17.1485 16.4725 16.0835 16.4725C15.0185 16.4575 14.006 16.63 13.046 16.99C12.101 17.335 11.3285 17.8075 10.7285 18.4075C10.1285 19.0075 9.82846 19.6975 9.82846 20.4775C9.82846 21.4825 10.106 22.24 10.661 22.75C11.231 23.26 11.9885 23.635 12.9335 23.875C13.8785 24.1 14.9285 24.31 16.0835 24.505C18.1835 24.835 20.126 25.39 21.911 26.17C23.696 26.95 25.1285 27.9925 26.2085 29.2975C27.2885 30.5875 27.8285 32.17 27.8285 34.045C27.8285 35.95 27.2885 37.6225 26.2085 39.0625C25.1285 40.4875 23.696 41.5975 21.911 42.3925C20.126 43.1875 18.1835 43.585 16.0835 43.585ZM49.0864 20.5H54.5764V43H49.0864L48.8389 40.21C48.2239 41.215 47.4064 42.0325 46.3864 42.6625C45.3814 43.2775 44.1889 43.585 42.8089 43.585C41.1439 43.585 39.5839 43.27 38.1289 42.64C36.6739 42.01 35.3914 41.14 34.2814 40.03C33.1864 38.92 32.3239 37.6375 31.6939 36.1825C31.0789 34.7275 30.7714 33.1675 30.7714 31.5025C30.7714 29.8975 31.0639 28.39 31.6489 26.98C32.2489 25.57 33.0814 24.3325 34.1464 23.2675C35.2114 22.2025 36.4414 21.37 37.8364 20.77C39.2314 20.17 40.7314 19.87 42.3364 19.87C43.8214 19.87 45.1489 20.2 46.3189 20.86C47.5039 21.52 48.5089 22.36 49.3339 23.38L49.0864 20.5ZM42.6739 38.2975C43.8439 38.2975 44.8789 38.005 45.7789 37.42C46.6789 36.835 47.3839 36.0475 47.8939 35.0575C48.4039 34.0525 48.6589 32.95 48.6589 31.75C48.6589 30.535 48.4039 29.4325 47.8939 28.4425C47.3839 27.4375 46.6714 26.6425 45.7564 26.0575C44.8564 25.4725 43.8289 25.18 42.6739 25.18C41.5189 25.18 40.4614 25.48 39.5014 26.08C38.5564 26.665 37.7989 27.4525 37.2289 28.4425C36.6739 29.4325 36.3964 30.535 36.3964 31.75C36.3964 32.965 36.6814 34.0675 37.2514 35.0575C37.8214 36.0475 38.5789 36.835 39.5239 37.42C40.4839 38.005 41.5339 38.2975 42.6739 38.2975ZM58.1599 34.675V20.5H63.6499V33.235C63.6499 34.12 63.8674 34.93 64.3024 35.665C64.7374 36.385 65.3149 36.9625 66.0349 37.3975C66.7699 37.8175 67.5724 38.0275 68.4424 38.0275C69.3424 38.0275 70.1524 37.8175 70.8724 37.3975C71.5924 36.9625 72.1699 36.385 72.6049 35.665C73.0399 34.93 73.2574 34.12 73.2574 33.235V20.5H78.7474L78.7699 43H73.2799L73.2574 40.9525C72.4774 41.7625 71.5549 42.4075 70.4899 42.8875C69.4249 43.3525 68.2849 43.585 67.0699 43.585C65.4349 43.585 63.9424 43.1875 62.5924 42.3925C61.2424 41.5825 60.1624 40.51 59.3524 39.175C58.5574 37.825 58.1599 36.325 58.1599 34.675ZM67.6999 17.98L69.4999 11.5H74.9899L71.3449 17.98H67.6999ZM99.9322 9.25H105.422V43H99.9322V40.1875C99.2122 41.1925 98.3047 42.01 97.2097 42.64C96.1147 43.27 94.8472 43.585 93.4072 43.585C91.7722 43.585 90.2422 43.2775 88.8172 42.6625C87.3922 42.0475 86.1322 41.2 85.0372 40.12C83.9572 39.025 83.1097 37.765 82.4947 36.34C81.8797 34.915 81.5722 33.385 81.5722 31.75C81.5722 30.115 81.8797 28.585 82.4947 27.16C83.1097 25.735 83.9572 24.4825 85.0372 23.4025C86.1322 22.3075 87.3922 21.4525 88.8172 20.8375C90.2422 20.2225 91.7722 19.915 93.4072 19.915C94.8472 19.915 96.1147 20.23 97.2097 20.86C98.3047 21.475 99.2122 22.2925 99.9322 23.3125V9.25ZM93.4747 38.2975C94.6447 38.2975 95.6797 38.005 96.5797 37.42C97.4797 36.835 98.1847 36.0475 98.6947 35.0575C99.2047 34.0525 99.4597 32.95 99.4597 31.75C99.4597 30.535 99.2047 29.4325 98.6947 28.4425C98.1847 27.4375 97.4722 26.6425 96.5572 26.0575C95.6572 25.4725 94.6297 25.18 93.4747 25.18C92.3197 25.18 91.2622 25.48 90.3022 26.08C89.3572 26.665 88.5997 27.4525 88.0297 28.4425C87.4747 29.4325 87.1972 30.535 87.1972 31.75C87.1972 32.965 87.4822 34.0675 88.0522 35.0575C88.6222 36.0475 89.3797 36.835 90.3247 37.42C91.2847 38.005 92.3347 38.2975 93.4747 38.2975ZM120.376 43.585C118.306 43.585 116.416 43.0525 114.706 41.9875C113.011 40.9225 111.653 39.49 110.633 37.69C109.628 35.89 109.126 33.9025 109.126 31.7275C109.126 30.0925 109.418 28.5625 110.003 27.1375C110.588 25.6975 111.391 24.4375 112.411 23.3575C113.446 22.2625 114.646 21.4075 116.011 20.7925C117.376 20.1775 118.831 19.87 120.376 19.87C122.131 19.87 123.736 20.245 125.191 20.995C126.661 21.73 127.906 22.7425 128.926 24.0325C129.946 25.3225 130.688 26.7925 131.153 28.4425C131.618 30.0925 131.723 31.8175 131.468 33.6175H115.021C115.231 34.4575 115.576 35.215 116.056 35.89C116.536 36.55 117.143 37.0825 117.878 37.4875C118.613 37.8775 119.446 38.08 120.376 38.095C121.336 38.11 122.206 37.885 122.986 37.42C123.781 36.94 124.441 36.295 124.966 35.485L130.568 36.79C129.653 38.785 128.288 40.42 126.473 41.695C124.658 42.955 122.626 43.585 120.376 43.585ZM114.841 29.5H125.911C125.746 28.6 125.393 27.79 124.853 27.07C124.328 26.335 123.676 25.75 122.896 25.315C122.116 24.88 121.276 24.6625 120.376 24.6625C119.476 24.6625 118.643 24.88 117.878 25.315C117.113 25.735 116.461 26.3125 115.921 27.0475C115.396 27.7675 115.036 28.585 114.841 29.5Z" fill="#048053"/>
</g>
<defs>
<filter id="filter0_d_301_1173" x="0.293457" y="9.25" width="135.557" height="42.335" filterUnits="userSpaceOnUse" color-interpolation-filters="sRGB">
<feFlood flood-opacity="0" result="BackgroundImageFix"/>
<feColorMatrix in="SourceAlpha" type="matrix" values="0 0 0 0 0 0 0 0 0 0 0 0 0 0 0 0 0 0 127 0" result="hardAlpha"/>
<feOffset dy="4"/>
<feGaussianBlur stdDeviation="2"/>
<feComposite in2="hardAlpha" operator="out"/>
<feColorMatrix type="matrix" values="0 0 0 0 0 0 0 0 0 0 0 0 0 0 0 0 0 0 0.1 0"/>
<feBlend mode="normal" in2="BackgroundImageFix" result="effect1_dropShadow_301_1173"/>
<feBlend mode="normal" in="SourceGraphic" in2="effect1_dropShadow_301_1173" result="shape"/>
</filter>
</defs>
</svg>
